# xmcd
#
# Track frame offsets: 
#        150
#        19878
#        31992
#        45686
#        65824
#        77564
#        95191
#        111641
#        128724
#        148095
#
# Disc length: 2182 seconds
#
# Revision: 0
# Processed by: cddbd v1.5.2PL0 Copyright (c) Steve Scherf et al.
# Submitted via: ExactAudioCopyFreeDBPlugin 1.0
#
DISCID=9308840a
DTITLE=Carol Wilson - Captured Heart
DYEAR=2008
DGENRE=Contemporary Christian
TTITLE0=His Name is Wonderful
TTITLE1=I Just Want to Worship You
TTITLE2=Heart Cry
TTITLE3=Glory to the Lamb
TTITLE4=Bring Me to the Place
TTITLE5=Something That My Father Seeks
TTITLE6=Backstreets
TTITLE7=Captured Heart
TTITLE8=All Over Me
TTITLE9=Not Ashamed
EXTD=
EXTT0=
EXTT1=
EXTT2=
EXTT3=
EXTT4=
EXTT5=
EXTT6=
EXTT7=
EXTT8=
EXTT9=
PLAYORDER=
